<svg xmlns="http://www.w3.org/2000/svg" viewBox="0 0 648.99 508.76"><defs><style>.cls-1{fill:#fff;}.cls-2,.cls-3{fill:#47bcd6;}.cls-3{fill-rule:evenodd;}</style></defs><title>FreeVector-Sailing-Ships-Silhouettes</title><g id="FreeVector.com_BG" data-name="FreeVector.com BG"><rect class="cls-1" width="648.99" height="485.04"/></g><g id="FreeVector.com_License" data-name="FreeVector.com License"><g id="FreeVector.com_Logo" data-name="FreeVector.com Logo"><g id="FreeVector.com_Logo-2" data-name="FreeVector.com Logo"><path d="M120.21,499.78a1.57,1.57,0,0,0-1.62-1.47c-1.85,0-2.14,1.58-2.14,3s.57,2.65,2,2.65a1.78,1.78,0,0,0,1.89-1.74h3.22a4.75,4.75,0,0,1-5.09,4.28,5,5,0,0,1-5.31-5.19c0-3.22,2.05-5.52,5.31-5.52,2.51,0,4.76,1.32,5,4Z" transform="translate(0 0)"/><path d="M128.82,495.85a5.34,5.34,0,1,0,5.33,5.35A5.15,5.15,0,0,0,128.82,495.85Z" transform="translate(0 0)"/><path d="M111.48,503.35a1.47,1.47,0,1,0,1.46,1.47A1.42,1.42,0,0,0,111.48,503.35Z" transform="translate(0 0)"/><path d="M134.38,496.5h3.14v1.35h0a3.3,3.3,0,0,1,2.84-1.64,2.85,2.85,0,0,1,2.87,1.6,3.61,3.61,0,0,1,3.08-1.6c3.14,0,3.48,2.38,3.48,4.26v5.9h-3.23v-5.8c0-1.07-.52-1.69-1.35-1.69-1.39,0-1.52,1.06-1.52,2.66v4.83h-3.24v-5.61c0-1.16-.34-1.88-1.21-1.88-1.17,0-1.66.66-1.66,2.68v4.81h-3.23Z" transform="translate(0 0)"/><polygon points="68.65 506.26 64.97 506.26 61.71 496.5 65.04 496.5 66.83 502.96 66.86 502.96 68.67 496.5 71.93 496.5 68.65 506.26"/><path d="M73.67,502.17a2.08,2.08,0,0,0,2.18,2.21,1.91,1.91,0,0,0,1.82-1.07h3c-.58,2.26-2.67,3.24-4.85,3.24-3.18,0-5.34-1.92-5.34-5.19a5.13,5.13,0,0,1,5.27-5.14c3.49,0,5.25,2.63,5.1,5.95Z" transform="translate(0 0)"/><path d="M87.68,500.08a1.52,1.52,0,0,0-1.57-1.42c-1.78,0-2.06,1.53-2.06,2.88s.54,2.56,1.9,2.56a1.71,1.71,0,0,0,1.82-1.67h3.1A4.58,4.58,0,0,1,86,506.55a4.86,4.86,0,0,1-5.11-5c0-3.1,2-5.32,5.11-5.32,2.43,0,4.59,1.28,4.82,3.86Z" transform="translate(0 0)"/><path d="M97,498.57H95V503c0,.77.45.94,1.14.94.26,0,.55,0,.83,0v2.35c-.58,0-1.16.1-1.75.1-2.73,0-3.42-.79-3.42-3.45v-4.34H90.16V496.5h1.62v-2.95H95v2.95h2Z" transform="translate(0 0)"/><path d="M101.34,496.22a5.17,5.17,0,1,0,5.15,5.17A5,5,0,0,0,101.34,496.22Z" transform="translate(0 0)"/><path d="M106.28,496.5h3.1v1.71h0a3,3,0,0,1,2.93-1.9,3.74,3.74,0,0,1,.75.08v2.91a4.93,4.93,0,0,0-1.22-.18,2.25,2.25,0,0,0-2.41,2.31v4.83h-3.19Z" transform="translate(0 0)"/><path d="M36.6,496.5h3.1v1.71h0a3,3,0,0,1,2.93-1.9,3.74,3.74,0,0,1,.75.08v2.91a4.93,4.93,0,0,0-1.22-.18,2.25,2.25,0,0,0-2.41,2.31v4.83H36.6Z" transform="translate(0 0)"/><path d="M45.48,502.17a2.07,2.07,0,0,0,2.18,2.21,1.91,1.91,0,0,0,1.82-1.07h3c-.58,2.26-2.67,3.24-4.85,3.24-3.18,0-5.34-1.92-5.34-5.19a5.13,5.13,0,0,1,5.27-5.14c3.49,0,5.24,2.63,5.09,5.95Z" transform="translate(0 0)"/><path d="M55.56,502.17a2.08,2.08,0,0,0,2.18,2.21,1.91,1.91,0,0,0,1.82-1.07h3c-.59,2.26-2.67,3.24-4.86,3.24-3.17,0-5.34-1.92-5.34-5.19a5.13,5.13,0,0,1,5.27-5.14c3.5,0,5.25,2.63,5.1,5.95Z" transform="translate(0 0)"/><path d="M36,495.1a6.38,6.38,0,0,1,.86,0v-2.26c-.51,0-1-.05-1.54-.05-2.73,0-3.71.86-3.71,3.66H30.09v2.07h1.54v7.69h3.2v-7.69h1.92V496.5H34.83v-.43C34.83,495.19,35.28,495.1,36,495.1Z" transform="translate(0 0)"/></g><g id="FreeVector_Icon" data-name="FreeVector Icon"><path class="cls-1" d="M26.94,499.61a7.21,7.21,0,1,1-7.21-7.21A7.21,7.21,0,0,1,26.94,499.61Z" transform="translate(0 0)"/><path d="M19.71,492.37a7.38,7.38,0,0,0-1.9.24c.25,0,.41.18.49.49,0,0,1.36,4.49,1.52,5s.35,1.06.35,1.06a1.27,1.27,0,0,0-.28.35,2.74,2.74,0,0,0-.25.77c-.21-.36-1-1.37-1.58-2a5.59,5.59,0,0,0-.16-.88C17.78,496.93,17,494,17,494a1.21,1.21,0,0,1,.21-1.25,7.2,7.2,0,0,0-.75,13.3,4.46,4.46,0,0,1-.67-1.74c-.22-1.33-.27-2.18-.43-2.92-.23-1-.16-1.22.18-1.66a1.2,1.2,0,0,1,.54-.4.49.49,0,0,1,.43.13c.42.46,1.24,1.34,1.34,1.46a.79.79,0,0,1,.08.88.47.47,0,0,1-.34.23.93.93,0,0,1-.72-.09c-.23-.19-1.35-1.21-1.35-1.16,0,.27.84.93,1.23,1.3a1.09,1.09,0,0,0,.88.13.62.62,0,0,0,.47-.34,1.1,1.1,0,0,0,.08-.72,1.13,1.13,0,0,0,.89.18,1,1,0,0,0,.55-.43c0,.19.06.41.1.67a7.25,7.25,0,0,0,.29,1.22.76.76,0,0,1,0,.19h0a4.31,4.31,0,0,0-.58,1.11,4.14,4.14,0,0,0-.2,1.17c0,.15,0,.37,0,.37s0-.23.06-.37a4.5,4.5,0,0,1,.23-1.14,5,5,0,0,1,.6-1l0,0c.05-.08,0-.16,0-.34a5.87,5.87,0,0,1-.29-1.19,2.79,2.79,0,0,1,.14-2,1.07,1.07,0,0,1,1.17-.51,1.68,1.68,0,0,1,.07.69c0,.35,0,.79.08,1.31a2.83,2.83,0,0,0,.59,1.49c.19.24.35.35.39.31s-.13-.17-.31-.44a3.2,3.2,0,0,1-.49-1.38c-.06-.51-.06-.95-.07-1.29,0-.53,0-.79-.19-.86a.92.92,0,0,0-.47,0l1.36-4.53c.23-.82.48-1.16,1-1.1h0A7.35,7.35,0,0,0,19.71,492.37ZM19,501.19c-.35.12-.82-.19-1-.36s-1.24-1.33-1.36-1.48c-.27-.3-.06-.94.59-1.16a.64.64,0,0,1,.65.13,20.55,20.55,0,0,1,1.64,2.11C19.62,500.76,19.44,501.05,19,501.19Zm3.2,1.69,0,0h0Z" transform="translate(0 0)"/><path d="M23.6,493.47a.69.69,0,0,1,.17.7l-1.21,5.41a6.27,6.27,0,0,0-.09,1.88,7.9,7.9,0,0,1,.24,3.1,6.24,6.24,0,0,1-.64,1.88,7.19,7.19,0,0,0,1.53-13Z" transform="translate(0 0)"/></g></g><g id="Legal_Line" data-name="Legal Line"><path d="M164.26,496.73h2.49v9.59h-2.49Z" transform="translate(0 0)"/><path d="M168.39,499.35h2.22v.95h0a2.34,2.34,0,0,1,2-1.16,2,2,0,0,1,2,1.13,2.56,2.56,0,0,1,2.18-1.13c2.21,0,2.45,1.68,2.45,3v4.17H177v-4.1c0-.75-.36-1.19-.95-1.19-1,0-1.08.75-1.08,1.87v3.42H172.7v-4c0-.81-.24-1.32-.86-1.32-.82,0-1.17.47-1.17,1.89v3.4h-2.28Z" transform="translate(0 0)"/><path d="M180.73,501.5a2.15,2.15,0,0,1,1.08-1.87,4.62,4.62,0,0,1,2.22-.49c1.65,0,3.25.37,3.25,2.34v3a4.05,4.05,0,0,0,.27,1.79h-2.3a2.49,2.49,0,0,1-.13-.66,3.15,3.15,0,0,1-2.3.86,2.08,2.08,0,0,1-2.37-2.11c0-2.27,2.47-2.1,4.05-2.42.39-.08.6-.21.6-.64s-.63-.73-1.1-.73a1,1,0,0,0-1.14.88Zm3,3.61c1.09,0,1.45-.62,1.4-2.06a6.94,6.94,0,0,1-1.41.38c-.51.12-.94.33-.94.88S183.17,505.11,183.68,505.11Z" transform="translate(0 0)"/><path d="M195.52,505.47c0,1.14-.21,3.29-3.48,3.29-1.62,0-3.15-.36-3.42-2.23h2.28a.75.75,0,0,0,.39.6,1.79,1.79,0,0,0,.83.15c1.09,0,1.2-.76,1.2-1.62V505h0a2.2,2.2,0,0,1-1.85,1c-2.11,0-3.06-1.5-3.06-3.46s1.09-3.42,3.06-3.42a2,2,0,0,1,1.87,1.08h0v-.87h2.19ZM192,500.89c-1,0-1.33.89-1.33,1.75s.38,1.63,1.32,1.63,1.38-.75,1.38-1.62S193,500.89,192,500.89Z" transform="translate(0 0)"/><path d="M198.93,503.39a1.49,1.49,0,0,0,1.56,1.58,1.35,1.35,0,0,0,1.3-.76h2.14a3.31,3.31,0,0,1-3.47,2.31,3.5,3.5,0,0,1-3.81-3.71,3.66,3.66,0,0,1,3.76-3.67c2.49,0,3.74,1.89,3.64,4.25Zm2.83-1.28a1.41,1.41,0,0,0-1.35-1.42,1.5,1.5,0,0,0-1.48,1.42Z" transform="translate(0 0)"/><path d="M207,504a.94.94,0,0,0,.37.78,1.47,1.47,0,0,0,.85.24c.44,0,1.07-.19,1.07-.74s-.71-.64-1.11-.74c-1.44-.36-3.24-.4-3.24-2.28,0-1.68,1.82-2.14,3.18-2.14,1.54,0,3.13.45,3.21,2.26h-2.1a.65.65,0,0,0-.3-.6,1.35,1.35,0,0,0-.72-.18c-.38,0-1,0-1,.53,0,.65,1.53.77,2.57,1a2,2,0,0,1,1.78,1.88c0,1.87-1.78,2.49-3.35,2.49s-3.34-.55-3.41-2.5Z" transform="translate(0 0)"/><path d="M216.78,501.5a2.13,2.13,0,0,1,1.09-1.87,4.59,4.59,0,0,1,2.22-.49c1.65,0,3.25.37,3.25,2.34v3a4.2,4.2,0,0,0,.26,1.79h-2.29a3,3,0,0,1-.14-.66,3.12,3.12,0,0,1-2.29.86c-1.33,0-2.38-.67-2.38-2.11,0-2.27,2.47-2.1,4.06-2.42.38-.08.6-.21.6-.64s-.63-.73-1.1-.73a1,1,0,0,0-1.14.88Zm3,3.61c1.08,0,1.45-.62,1.39-2.06a6.76,6.76,0,0,1-1.41.38c-.51.12-.94.33-.94.88S219.23,505.11,219.74,505.11Z" transform="translate(0 0)"/><path d="M224.92,499.35h2.21v1.22h0a2.1,2.1,0,0,1,2.09-1.36,2.42,2.42,0,0,1,.54.06v2.08a3.17,3.17,0,0,0-.87-.14,1.6,1.6,0,0,0-1.72,1.65v3.46h-2.28Z" transform="translate(0 0)"/><path d="M232.26,503.39a1.49,1.49,0,0,0,1.56,1.58,1.36,1.36,0,0,0,1.3-.76h2.13a3.29,3.29,0,0,1-3.46,2.31,3.5,3.5,0,0,1-3.81-3.71,3.66,3.66,0,0,1,3.76-3.67c2.49,0,3.74,1.89,3.64,4.25Zm2.83-1.28a1.41,1.41,0,0,0-1.35-1.42,1.5,1.5,0,0,0-1.48,1.42Z" transform="translate(0 0)"/><path d="M242.74,499.35h2.18v.8h0a2.25,2.25,0,0,1,1.93-1c2.18,0,3.11,1.89,3.11,3.85,0,1.81-1,3.53-2.94,3.53a2.32,2.32,0,0,1-2-1h0v3.09h-2.29Zm2.2,3.41c0,1.22.35,2,1.39,2s1.37-1.06,1.37-2-.35-1.87-1.36-1.87C245.72,500.89,244.94,501.32,244.94,502.76Z" transform="translate(0 0)"/><path d="M251.28,499.35h2.22v1.22h0a2.11,2.11,0,0,1,2.1-1.36,2.39,2.39,0,0,1,.53.06v2.08a3.17,3.17,0,0,0-.87-.14,1.6,1.6,0,0,0-1.72,1.65v3.46h-2.28Z" transform="translate(0 0)"/><path d="M260,499.14a3.69,3.69,0,1,1-3.67,3.7A3.57,3.57,0,0,1,260,499.14Zm0,5.63c1.06,0,1.39-1,1.39-1.93s-.33-1.95-1.39-1.95-1.39,1.06-1.39,1.95S258.94,504.77,260,504.77Z" transform="translate(0 0)"/><path d="M264.88,499.35h2.17v.8h0a2.22,2.22,0,0,1,1.92-1c2.19,0,3.11,1.89,3.11,3.85,0,1.81-1,3.53-2.94,3.53a2.3,2.3,0,0,1-2-1h0v3.09h-2.28Zm2.2,3.41c0,1.22.35,2,1.38,2s1.37-1.06,1.37-2-.35-1.87-1.35-1.87C267.86,500.89,267.08,501.32,267.08,502.76Z" transform="translate(0 0)"/><path d="M275.28,503.39a1.49,1.49,0,0,0,1.56,1.58,1.35,1.35,0,0,0,1.3-.76h2.14a3.31,3.31,0,0,1-3.47,2.31,3.5,3.5,0,0,1-3.81-3.71,3.66,3.66,0,0,1,3.76-3.67c2.5,0,3.74,1.89,3.64,4.25Zm2.83-1.28a1.41,1.41,0,0,0-1.35-1.42,1.5,1.5,0,0,0-1.48,1.42Z" transform="translate(0 0)"/><path d="M281.62,499.35h2.21v1.22h0a2.09,2.09,0,0,1,2.09-1.36,2.42,2.42,0,0,1,.54.06v2.08a3.23,3.23,0,0,0-.87-.14,1.6,1.6,0,0,0-1.72,1.65v3.46h-2.28Z" transform="translate(0 0)"/><path d="M291.46,500.82h-1.41V504c0,.55.32.67.82.67l.59,0v1.68c-.42,0-.84.06-1.25.06-1.95,0-2.45-.56-2.45-2.46v-3.1h-1.15v-1.47h1.15v-2.11h2.29v2.11h1.41Z" transform="translate(0 0)"/><path d="M296.28,506.93c-.55,1.53-1.37,1.72-2.92,1.72h-1.07V506.8h.79A.81.81,0,0,0,294,506a9.89,9.89,0,0,0-.57-1.83l-1.8-4.84H294l1.32,4.53h0l1.31-4.53H299Z" transform="translate(0 0)"/><path d="M307.24,499.14a3.69,3.69,0,1,1-3.66,3.7A3.58,3.58,0,0,1,307.24,499.14Zm0,5.63c1.06,0,1.4-1,1.4-1.93s-.34-1.95-1.4-1.95-1.38,1.06-1.38,1.95S306.18,504.77,307.24,504.77Z" transform="translate(0 0)"/><path d="M312.61,500.82h-1.1v-1.47h1.1c0-2,.7-2.62,2.65-2.62.36,0,.73,0,1.1,0v1.61a4.49,4.49,0,0,0-.62,0c-.52,0-.85.07-.85.7v.31h1.37v1.47h-1.37v5.5h-2.28Z" transform="translate(0 0)"/><path d="M325.51,500.82H324.1V504c0,.55.32.67.82.67l.59,0v1.68c-.41,0-.83.06-1.25.06-1.94,0-2.44-.56-2.44-2.46v-3.1h-1.16v-1.47h1.16v-2.11h2.28v2.11h1.41Z" transform="translate(0 0)"/><path d="M326.53,496.73h2.28v3.57h0a2.44,2.44,0,0,1,2.12-1.16c2.33,0,2.51,1.7,2.51,2.7v4.48h-2.28V503c0-1,.11-1.92-1.14-1.92-.86,0-1.24.72-1.24,1.49v3.8h-2.28Z" transform="translate(0 0)"/><path d="M336.93,503.39a1.49,1.49,0,0,0,1.56,1.58,1.35,1.35,0,0,0,1.3-.76h2.14a3.31,3.31,0,0,1-3.47,2.31,3.51,3.51,0,0,1-3.81-3.71,3.67,3.67,0,0,1,3.76-3.67c2.5,0,3.75,1.89,3.64,4.25Zm2.84-1.28a1.41,1.41,0,0,0-1.36-1.42,1.52,1.52,0,0,0-1.48,1.42Z" transform="translate(0 0)"/><path d="M354.32,506.32h-2.18v-.81h0a2.24,2.24,0,0,1-1.92,1c-2.19,0-3.12-1.88-3.12-3.84s1-3.54,2.94-3.54a2.35,2.35,0,0,1,2,1h0v-3.37h2.28Zm-4.95-3.56c0,.95.34,2,1.39,2s1.36-1.06,1.36-1.95-.37-1.93-1.36-1.93S349.37,501.87,349.37,502.76Z" transform="translate(0 0)"/><path d="M357.82,503.39a1.49,1.49,0,0,0,1.56,1.58,1.35,1.35,0,0,0,1.3-.76h2.14a3.31,3.31,0,0,1-3.47,2.31,3.5,3.5,0,0,1-3.81-3.71,3.66,3.66,0,0,1,3.76-3.67c2.49,0,3.74,1.89,3.64,4.25Zm2.83-1.28a1.41,1.41,0,0,0-1.35-1.42,1.5,1.5,0,0,0-1.48,1.42Z" transform="translate(0 0)"/><path d="M365.85,504a1,1,0,0,0,.37.78,1.47,1.47,0,0,0,.85.24c.44,0,1.07-.19,1.07-.74s-.71-.64-1.11-.74c-1.44-.36-3.24-.4-3.24-2.28,0-1.68,1.82-2.14,3.19-2.14,1.53,0,3.13.45,3.21,2.26h-2.11a.65.65,0,0,0-.3-.6,1.35,1.35,0,0,0-.72-.18c-.38,0-1,0-1,.53,0,.65,1.53.77,2.58,1a2,2,0,0,1,1.77,1.88c0,1.87-1.77,2.49-3.35,2.49s-3.34-.55-3.41-2.5Z" transform="translate(0 0)"/><path d="M373.9,498.47h-2.28v-1.74h2.28Zm-2.28.88h2.28v7h-2.28Z" transform="translate(0 0)"/><path d="M382.25,505.47c0,1.14-.21,3.29-3.47,3.29-1.63,0-3.16-.36-3.43-2.23h2.28a.75.75,0,0,0,.39.6,1.83,1.83,0,0,0,.84.15c1.08,0,1.19-.76,1.19-1.62V505h0a2.23,2.23,0,0,1-1.86,1c-2.11,0-3.06-1.5-3.06-3.46s1.09-3.42,3.06-3.42a2,2,0,0,1,1.87,1.08h0v-.87h2.19Zm-3.53-4.58c-1,0-1.33.89-1.33,1.75s.38,1.63,1.32,1.63,1.38-.75,1.38-1.62S379.74,500.89,378.72,500.89Z" transform="translate(0 0)"/><path d="M383.71,499.35h2.22v.95h0a2.63,2.63,0,0,1,2.19-1.16c2.32,0,2.51,1.7,2.51,2.7v4.48h-2.29V503c0-1,.11-1.92-1.14-1.92-.86,0-1.23.72-1.23,1.49v3.8h-2.29Z" transform="translate(0 0)"/><path d="M394.12,503.39a1.49,1.49,0,0,0,1.56,1.58,1.36,1.36,0,0,0,1.3-.76h2.13a3.29,3.29,0,0,1-3.46,2.31,3.5,3.5,0,0,1-3.81-3.71,3.66,3.66,0,0,1,3.76-3.67c2.49,0,3.74,1.89,3.63,4.25Zm2.83-1.28a1.41,1.41,0,0,0-1.35-1.42,1.5,1.5,0,0,0-1.48,1.42Z" transform="translate(0 0)"/><path d="M400.45,499.35h2.22v1.22h0a2.09,2.09,0,0,1,2.09-1.36,2.55,2.55,0,0,1,.54.06v2.08a3.29,3.29,0,0,0-.87-.14,1.6,1.6,0,0,0-1.72,1.65v3.46h-2.29Z" transform="translate(0 0)"/><path d="M405,503.82h2.5v2.5H405Z" transform="translate(0 0)"/><path d="M422.73,500.15a1.75,1.75,0,0,0-1.94-1.48c-1.61,0-2.23,1.43-2.23,2.85s.62,2.85,2.23,2.85a1.79,1.79,0,0,0,1.94-1.77h2.49a4,4,0,0,1-4.38,3.92,5,5,0,0,1,0-10c2.07,0,4.31,1.31,4.38,3.62Z" transform="translate(0 0)"/><path d="M426.45,496.73h2.29v3.57h0a2.44,2.44,0,0,1,2.12-1.16c2.33,0,2.52,1.7,2.52,2.7v4.48h-2.28V503c0-1,.1-1.92-1.15-1.92-.86,0-1.23.72-1.23,1.49v3.8h-2.29Z" transform="translate(0 0)"/><path d="M436.86,503.39a1.49,1.49,0,0,0,1.56,1.58,1.36,1.36,0,0,0,1.3-.76h2.13a3.29,3.29,0,0,1-3.46,2.31,3.5,3.5,0,0,1-3.81-3.71,3.66,3.66,0,0,1,3.75-3.67c2.5,0,3.75,1.89,3.64,4.25Zm2.83-1.28a1.41,1.41,0,0,0-1.36-1.42,1.5,1.5,0,0,0-1.47,1.42Z" transform="translate(0 0)"/><path d="M447.65,501.9a1.07,1.07,0,0,0-1.11-1c-1.28,0-1.48,1.09-1.48,2.06s.39,1.82,1.36,1.82a1.22,1.22,0,0,0,1.3-1.19h2.21a3.27,3.27,0,0,1-3.5,2.94,3.47,3.47,0,0,1-3.65-3.57,3.53,3.53,0,0,1,3.65-3.81c1.73,0,3.28.92,3.44,2.76Z" transform="translate(0 0)"/><path d="M451.07,496.73h2.29v4.94l2.08-2.32h2.64L455.53,502l2.88,4.34h-2.76l-1.7-2.81-.59.58v2.23h-2.29Z" transform="translate(0 0)"/><path d="M463.34,496.73h2.28v9.59h-2.28Z" transform="translate(0 0)"/><path d="M469.6,498.47h-2.28v-1.74h2.28Zm-2.28.88h2.28v7h-2.28Z" transform="translate(0 0)"/><path d="M475.75,501.9a1.08,1.08,0,0,0-1.12-1c-1.27,0-1.47,1.09-1.47,2.06s.38,1.82,1.35,1.82a1.22,1.22,0,0,0,1.3-1.19H478a3.27,3.27,0,0,1-3.51,2.94,3.47,3.47,0,0,1-3.65-3.57,3.53,3.53,0,0,1,3.65-3.81c1.74,0,3.28.92,3.44,2.76Z" transform="translate(0 0)"/><path d="M481.11,503.39a1.49,1.49,0,0,0,1.56,1.58,1.37,1.37,0,0,0,1.31-.76h2.13a3.3,3.3,0,0,1-3.46,2.31,3.51,3.51,0,0,1-3.82-3.71,3.67,3.67,0,0,1,3.76-3.67c2.5,0,3.75,1.89,3.64,4.25Zm2.84-1.28a1.41,1.41,0,0,0-1.36-1.42,1.52,1.52,0,0,0-1.48,1.42Z" transform="translate(0 0)"/><path d="M487.37,499.35h2.22v.95h0a2.65,2.65,0,0,1,2.19-1.16c2.32,0,2.51,1.7,2.51,2.7v4.48H492V503c0-1,.11-1.92-1.14-1.92-.86,0-1.24.72-1.24,1.49v3.8h-2.28Z" transform="translate(0 0)"/><path d="M497.6,504a1,1,0,0,0,.37.78,1.47,1.47,0,0,0,.85.24c.44,0,1.07-.19,1.07-.74s-.71-.64-1.11-.74c-1.44-.36-3.24-.4-3.24-2.28,0-1.68,1.82-2.14,3.19-2.14,1.53,0,3.13.45,3.21,2.26h-2.11a.65.65,0,0,0-.3-.6,1.35,1.35,0,0,0-.72-.18c-.38,0-1,0-1,.53,0,.65,1.53.77,2.57,1a2,2,0,0,1,1.78,1.88c0,1.87-1.78,2.49-3.35,2.49s-3.34-.55-3.41-2.5Z" transform="translate(0 0)"/><path d="M505.24,503.39a1.48,1.48,0,0,0,1.55,1.58,1.37,1.37,0,0,0,1.31-.76h2.13a3.3,3.3,0,0,1-3.46,2.31,3.51,3.51,0,0,1-3.82-3.71,3.67,3.67,0,0,1,3.76-3.67c2.5,0,3.75,1.89,3.64,4.25Zm2.83-1.28a1.41,1.41,0,0,0-1.36-1.42,1.5,1.5,0,0,0-1.47,1.42Z" transform="translate(0 0)"/><path d="M516.22,500.82h-1.1v-1.47h1.1c0-2,.69-2.62,2.64-2.62.36,0,.74,0,1.1,0v1.61a4.26,4.26,0,0,0-.61,0c-.53,0-.85.07-.85.7v.31h1.37v1.47H518.5v5.5h-2.28Z" transform="translate(0 0)"/><path d="M524,499.14a3.69,3.69,0,1,1-3.67,3.7A3.58,3.58,0,0,1,524,499.14Zm0,5.63c1.06,0,1.39-1,1.39-1.93s-.33-1.95-1.39-1.95-1.39,1.06-1.39,1.95S523,504.77,524,504.77Z" transform="translate(0 0)"/><path d="M529,499.35h2.21v1.22h0a2.11,2.11,0,0,1,2.1-1.36,2.39,2.39,0,0,1,.53.06v2.08a3.17,3.17,0,0,0-.87-.14,1.6,1.6,0,0,0-1.72,1.65v3.46H529Z" transform="translate(0 0)"/><path d="M538.83,499.35H541v.8h0a2.22,2.22,0,0,1,1.92-1c2.18,0,3.11,1.89,3.11,3.85,0,1.81-1,3.53-2.94,3.53a2.32,2.32,0,0,1-2-1h0v3.09h-2.29Zm2.21,3.41c0,1.22.35,2,1.38,2s1.37-1.06,1.37-2-.35-1.87-1.36-1.87C541.82,500.89,541,501.32,541,502.76Z" transform="translate(0 0)"/><path d="M549.24,503.39A1.49,1.49,0,0,0,550.8,505a1.36,1.36,0,0,0,1.3-.76h2.13a3.29,3.29,0,0,1-3.46,2.31,3.5,3.5,0,0,1-3.81-3.71,3.66,3.66,0,0,1,3.76-3.67c2.49,0,3.74,1.89,3.64,4.25Zm2.83-1.28a1.41,1.41,0,0,0-1.35-1.42,1.5,1.5,0,0,0-1.48,1.42Z" transform="translate(0 0)"/><path d="M555.57,499.35h2.22v1.22h0a2.09,2.09,0,0,1,2.09-1.36,2.48,2.48,0,0,1,.54.06v2.08a3.29,3.29,0,0,0-.87-.14,1.6,1.6,0,0,0-1.72,1.65v3.46h-2.29Z" transform="translate(0 0)"/><path d="M561.21,499.35h2.22v.95h0a2.34,2.34,0,0,1,2-1.16,2,2,0,0,1,2,1.13,2.56,2.56,0,0,1,2.18-1.13c2.21,0,2.46,1.68,2.46,3v4.17h-2.29v-4.1c0-.75-.36-1.19-1-1.19-1,0-1.07.75-1.07,1.87v3.42h-2.29v-4c0-.81-.24-1.32-.86-1.32-.82,0-1.16.47-1.16,1.89v3.4h-2.29Z" transform="translate(0 0)"/><path d="M576,498.47h-2.29v-1.74H576Zm-2.29.88H576v7h-2.29Z" transform="translate(0 0)"/><path d="M581.82,500.82h-1.41V504c0,.55.32.67.82.67l.59,0v1.68c-.42,0-.83.06-1.25.06-2,0-2.44-.56-2.44-2.46v-3.1H577v-1.47h1.16v-2.11h2.28v2.11h1.41Z" transform="translate(0 0)"/><path d="M587,500.82h-1.41V504c0,.55.32.67.82.67l.59,0v1.68c-.42,0-.83.06-1.25.06-1.95,0-2.44-.56-2.44-2.46v-3.1h-1.16v-1.47h1.16v-2.11h2.28v2.11H587Z" transform="translate(0 0)"/><path d="M590,503.39a1.48,1.48,0,0,0,1.55,1.58,1.36,1.36,0,0,0,1.31-.76H595a3.3,3.3,0,0,1-3.46,2.31,3.51,3.51,0,0,1-3.82-3.71,3.67,3.67,0,0,1,3.76-3.67c2.5,0,3.75,1.89,3.64,4.25Zm2.83-1.28a1.41,1.41,0,0,0-1.36-1.42,1.5,1.5,0,0,0-1.47,1.42Z" transform="translate(0 0)"/><path d="M603.16,506.32H601v-.81h0a2.22,2.22,0,0,1-1.92,1c-2.19,0-3.11-1.88-3.11-3.84s1-3.54,2.94-3.54a2.34,2.34,0,0,1,2,1h0v-3.37h2.28Zm-4.95-3.56c0,.95.35,2,1.39,2s1.36-1.06,1.36-1.95-.36-1.93-1.36-1.93S598.21,501.87,598.21,502.76Z" transform="translate(0 0)"/><path d="M615.87,506.32h-2.21v-1h0a2.57,2.57,0,0,1-2.12,1.16c-2,0-2.58-1.16-2.58-3v-4.19h2.28v4c0,.92.41,1.25,1.13,1.25.5,0,1.25-.33,1.25-1.56v-3.73h2.28Z" transform="translate(0 0)"/><path d="M619.18,504a.94.94,0,0,0,.37.78,1.44,1.44,0,0,0,.85.24c.44,0,1.07-.19,1.07-.74s-.71-.64-1.11-.74c-1.44-.36-3.24-.4-3.24-2.28,0-1.68,1.81-2.14,3.18-2.14,1.53,0,3.13.45,3.21,2.26H621.4a.65.65,0,0,0-.29-.6,1.39,1.39,0,0,0-.73-.18c-.37,0-1,0-1,.53,0,.65,1.54.77,2.58,1a2,2,0,0,1,1.77,1.88c0,1.87-1.77,2.49-3.34,2.49S617.07,506,617,504Z" transform="translate(0 0)"/><path d="M626.81,503.39a1.49,1.49,0,0,0,1.56,1.58,1.35,1.35,0,0,0,1.3-.76h2.14a3.31,3.31,0,0,1-3.47,2.31,3.51,3.51,0,0,1-3.81-3.71,3.67,3.67,0,0,1,3.76-3.67c2.5,0,3.75,1.89,3.64,4.25Zm2.84-1.28a1.41,1.41,0,0,0-1.36-1.42,1.51,1.51,0,0,0-1.48,1.42Z" transform="translate(0 0)"/><path d="M633.18,503.82h2.49v2.5h-2.49Z" transform="translate(0 0)"/></g></g><g id="Vector_Graphics" data-name="Vector Graphics"><path class="cls-2" d="M450.71,445.38s26.65,2.24,37.1,3S517.09,450,519.73,450s1.61,0,1.61-1-1.15-29-1.15-35.4-.34-16.19-.34-16.19-7.24-8.83-11.6-15S496.13,365,494.93,366.21,478.28,395,475.06,400.38s-11.72,20.21-15.16,27.81S450.71,445.38,450.71,445.38Z" transform="translate(0 0)"/><path class="cls-2" d="M529.38,382.51s17.11,14.74,17.8,15.42,1.72,2.78,1.72,5.91-.8,22.34-.8,31.16a140.81,140.81,0,0,0,.69,14.74s-5.4-.67-11.37-1.23-12.29.67-12.29-1.45.58-21.22,1.26-31.27S529.38,384.75,529.38,382.51Z" transform="translate(0 0)"/><path class="cls-2" d="M551.66,397.81s17,31.27,19.52,36.63S578.65,450,578.65,450s-7-.7-14.13-1.7-11.6-1.68-11.6-1.68-.92-25.68-.92-32.05S551.66,397.81,551.66,397.81Z" transform="translate(0 0)"/><path class="cls-2" d="M551.54,386.31s11.38,10.61,22.86,22.89,25.26,25.13,29.28,30a39.79,39.79,0,0,0,7.93,7.48s-20.22-1-26.53-2a68.34,68.34,0,0,0-9.47-1s-4.65-10-9.79-19.61a183,183,0,0,1-11.29-27.29C553.5,393.12,551.54,386.31,551.54,386.31Z" transform="translate(0 0)"/><path class="cls-2" d="M550.7,453.58c0,.58-.2,1-.48,1.06h0c-.29,0-.53-.45-.56-1l-3.55-102.09c0-.57.19-1,.48-1h0c.28,0,.53.45.55,1Z" transform="translate(0 0)"/><path class="cls-2" d="M606.11,418.86a.35.35,0,0,0-.47-.12l-52.53,30.12a.32.32,0,0,0-.12.46h0a.34.34,0,0,0,.46.12L606,419.32a.34.34,0,0,0,.12-.46Z" transform="translate(0 0)"/><path class="cls-2" d="M614.12,447.2c.16-.11.11-.43-.09-.72L547.66,354.3c-.2-.29-.5-.44-.65-.33h0c-.16.11-.11.42.09.71l66.36,92.19c.21.29.51.43.66.33Z" transform="translate(0 0)"/><path class="cls-2" d="M495.33,366.22c.11.15.26.23.34.17l24.54-17.3c.08,0,0-.22-.06-.37h0c-.11-.15-.27-.23-.34-.17l-24.55,17.3c-.07.06-.05.22.07.37Z" transform="translate(0 0)"/><path class="cls-2" d="M505.77,383.93c.18.07.35,0,.4-.06l13.8-33c0-.11-.07-.25-.24-.32h0c-.18-.07-.36,0-.4.07l-13.8,33c0,.1.06.24.24.31Z" transform="translate(0 0)"/><path class="cls-2" d="M520.25,378.69c.12.14.3.19.38.11l27-24.07c.08-.08,0-.25-.08-.39h0c-.13-.13-.31-.18-.39-.11l-27,24.08c-.08.08,0,.25.09.38Z" transform="translate(0 0)"/><path class="cls-2" d="M519.58,378c0,.18,0,.34.11.35l29.16,4.32c.09,0,.19-.13.21-.31h0c0-.18,0-.34-.11-.36l-29.16-4.31c-.09,0-.19.13-.21.31Z" transform="translate(0 0)"/><path class="cls-2" d="M529.35,382.74c.16.1.33.11.39,0l17.31-26.95c.06-.08,0-.23-.19-.33h0c-.16-.1-.34-.11-.39,0l-17.32,26.94c0,.08,0,.23.2.33Z" transform="translate(0 0)"/><path class="cls-2" d="M519.28,349.12a.21.21,0,0,0,0,.31l27.63,32.9a.23.23,0,0,0,.31.06h0a.21.21,0,0,0,0-.31l-27.63-32.9a.23.23,0,0,0-.31-.06Z" transform="translate(0 0)"/><path class="cls-2" d="M551.35,359.47c-.11,0-.2.09-.19.18l2.38,30.21c0,.1.1.16.21.16h0a.2.2,0,0,0,.19-.19l-2.37-30.21a.2.2,0,0,0-.22-.15Z" transform="translate(0 0)"/><path class="cls-2" d="M495.3,366.53a.19.19,0,0,0,0,.25l24.24,13.11a.19.19,0,0,0,.24-.1h0a.18.18,0,0,0,0-.24l-24.24-13.12a.2.2,0,0,0-.24.1Z" transform="translate(0 0)"/><path class="cls-2" d="M495.3,370.08a.19.19,0,0,0,0,.25l24.24,13.12a.2.2,0,0,0,.24-.1h0a.19.19,0,0,0,0-.25L495.54,370c-.08-.05-.18,0-.24.09Z" transform="translate(0 0)"/><path class="cls-2" d="M530.79,383.8c0,.1.05.19.11.18l17.18-1s.09-.09.08-.2h0c0-.11,0-.19-.11-.19l-17.18,1s-.09.09-.08.2Z" transform="translate(0 0)"/><path class="cls-2" d="M530.86,385.64c0,.1,0,.2.07.2l16.94,2.36s.11-.07.12-.18h0c0-.1,0-.2-.06-.2L531,385.46c-.05,0-.11.07-.12.18Z" transform="translate(0 0)"/><path class="cls-2" d="M519.55,410.83c0,.1.09.18.12.17l8.62-3s0-.1,0-.2h0c0-.11-.09-.18-.11-.17l-8.63,3s0,.1,0,.2Z" transform="translate(0 0)"/><path class="cls-2" d="M518.93,382.17c-.12,0-.19.19-.18.4l5.2,69.55c0,.22.12.39.23.38h0c.11,0,.19-.19.18-.41l-5.21-69.55c0-.21-.11-.38-.22-.37Z" transform="translate(0 0)"/><path class="cls-2" d="M548,386.88c-.11,0-.19.18-.17.4l5.2,69.55c0,.22.11.39.23.38h0c.11,0,.18-.19.16-.41l-5.19-69.54c0-.22-.12-.39-.23-.38Z" transform="translate(0 0)"/><path class="cls-2" d="M614.7,447c-2.46.28-19.63,1.29-22.61,1.73s-15.51,1.34-19.3,1.85-3.33-.67-3.79-.67-1,.22-1,.47-.6.47-.6.92l-6.66.62s-.81-2.07-4.48-2.07l-.35,2.34-8.38.56V452s.69-1-1-1h-1.72s.69-.79-.81-.79h-5.39s-.84-.5-.84.81l-3.3.14s.4-1.06-.63-1.06h-5.45a1.63,1.63,0,0,0-.47,1.23l-11.77.12v-.84l-6.43-.12c-.29,0-1.06,0-1.06.76l-4.45,0s-.06-.51-1-.51-5.34-.22-5.34.39v1.29l-4.24.67s2.93-5.81,2.93-6.7A20.9,20.9,0,0,1,494.7,449a34.94,34.94,0,0,0-2.47,3.91s-9.19.89-10.68.28-.92.56-.92.56l-3.62-.23s1.38-.86.89-.86-.61.13-1.16.66c0,0-1.28.15-1.28-.46s-.57-6.7-.57-6.7a15,15,0,0,0-.52,3.46c0,1.62-.17,3.18-.17,3.18s-.81.89-1.32.89-2.53-1.17-2.53-.28c0,0,3.1,2.63,5.17,3.13s12.11,3.24,12.11,3.24l-6.14.28.23.71s47.9-1,60.64-1,26.87-.34,26.87-.34,2.64-1.51,5.91-3.19a37.86,37.86,0,0,0,7.06-4.91s34.23-3,34.23-3.52S617.18,446.72,614.7,447Zm-134.59,7.32s20.64,1.7,36.9,1.23c4.71-.22,7.89-.45,7.89-.45-2.41.23-5.08.37-7.89.45C506.27,456.07,487.54,456.57,480.11,454.32Z" transform="translate(0 0)"/><path class="cls-2" d="M474.89,453.56a.14.14,0,0,1,.07.2h0a.14.14,0,0,1-.2.07l-18.42-8.62a.13.13,0,0,1-.07-.19h0a.14.14,0,0,1,.2-.07Z" transform="translate(0 0)"/><path class="cls-2" d="M476.16,454.76a.16.16,0,0,1-.2.08h0a.14.14,0,0,1-.08-.19l7.59-18.45a.17.17,0,0,1,.21-.09h0a.16.16,0,0,1,.08.2Z" transform="translate(0 0)"/><path class="cls-2" d="M478.57,455.14a.15.15,0,0,1-.19.11h0a.15.15,0,0,1-.11-.18l5.06-19.26a.15.15,0,0,1,.18-.11h0a.16.16,0,0,1,.12.18Z" transform="translate(0 0)"/><path class="cls-2" d="M495.44,455.14a.15.15,0,0,1-.18.11h0a.15.15,0,0,1-.11-.18l5.05-19.26a.16.16,0,0,1,.19-.11h0a.15.15,0,0,1,.11.18Z" transform="translate(0 0)"/><path class="cls-2" d="M524.17,454a.15.15,0,0,1-.14.16h0a.16.16,0,0,1-.17-.13l-2-19.78a.15.15,0,0,1,.14-.17h0a.15.15,0,0,1,.16.14Z" transform="translate(0 0)"/><path class="cls-2" d="M521.85,454.37a.15.15,0,0,1-.14.16h0a.15.15,0,0,1-.17-.13l-2-19.78a.14.14,0,0,1,.13-.16h0a.14.14,0,0,1,.17.13Z" transform="translate(0 0)"/><path class="cls-2" d="M548.55,391.13l10.5,20.34S551.41,392.37,548.55,391.13Z" transform="translate(0 0)"/><polygon class="cls-2" points="519.66 351.64 521.23 398.93 518.93 398.93 519.66 351.64"/><path class="cls-2" d="M551.54,386.31l-3.49-3.72S549.85,386.65,551.54,386.31Z" transform="translate(0 0)"/><path class="cls-3" d="M164.08,460.78c-.78,0-1.59,0-2.38-.06s-1.54-.06-2.27-.06H53.5c-4.28,0-7.76-.1-10.41-1.31a8.11,8.11,0,0,1-4.5-5,10.83,10.83,0,0,1-.26-2.69,14.83,14.83,0,0,0-.12-2.2L38,444.3l-.23-4.85,0-3.28-.08-.62a11.74,11.74,0,0,0-.58-2.62,1.46,1.46,0,0,0-.46-.55,1.65,1.65,0,0,1-.39-.44l-.23-1.26-.21-1.23-.22-3.31-.22-3.29a8.53,8.53,0,0,1,0-1.67,4.89,4.89,0,0,0-.11-2.09c-.24-.59-.79-.76-1.37-.94a4.62,4.62,0,0,1-.93-.37c-.13-.67-.92-6,0-7.27a2.69,2.69,0,0,1,2.31-.79,19.8,19.8,0,0,1,2.75.27l.22,0a17.59,17.59,0,0,0,2.17.24l12.57-5.63-3.46.1-3.49,0-.06-.52,0-.43.26-.07a1.15,1.15,0,0,0,.64-.14l11.76-15,11.78-15c.76-1,1.54-2,2.32-2.92a35.93,35.93,0,0,0,4.9-7.08l.9-1.81,0-3.49L80,358.2l.09,5.52,26.12-12.22,2-.94,0-1.73a2,2,0,0,1,1-.3,1.72,1.72,0,0,1,.44.06,5,5,0,0,1,.44,3,5.66,5.66,0,0,0,.19,2.43l23.42,13.81,10.3,6.08,0-2.65a.74.74,0,0,1,.38-.09,1.26,1.26,0,0,1,1,.36,3.56,3.56,0,0,1,.38,2.38c0,.27,0,.55,0,.83v1l8.86,7.22,29.64,24.1,8.08,6.59c.24.2.57.5.92.84a8.52,8.52,0,0,0,2.54,1.92,3,3,0,0,1,1.71-.78.71.71,0,0,1,.68.37.81.81,0,0,1,.18.69c-.16.74-1.37,1.33-2.17,1.71-.23.11-.42.2-.53.27a48.92,48.92,0,0,0-4.18,3.23c-.59.49-1.18,1-1.78,1.45L188,424.67,186.45,426l.23.32c.59,1.2,1.58,3.21.83,4.53l-1.1.62-2.7,1.48c-.57.34-1.16.65-1.75,1a18.69,18.69,0,0,0-2.83,1.74c-1.44,1.14-4.32,6.85-5,9.21l-.53,3.61a54.8,54.8,0,0,1-2.2,8.42l-.17.47c-.43,1.14-1,2.56-2,3a3.67,3.67,0,0,1-1.5.2,6.17,6.17,0,0,0-1,.06,16.56,16.56,0,0,1-2.63.17Zm-35.61-39.41-10.08,4.55-7.07,3.19,2.06,1.84,2,2a13,13,0,0,1,.73,3.43c.21,1.79.44,3.65,1.56,4.52a3.19,3.19,0,0,0,1.74.31c.47,0,1,0,1.38-.05l.75,0,9.17-.21a3.68,3.68,0,0,1,.49,0c.24,0,.49,0,.75,0s.49,0,.72,0a1.83,1.83,0,0,0,.79-.14l.58-1.14.62-1.18.21-.38c.92-1.62,1.78-3.15,2.81-4.62l.22-.31a5.12,5.12,0,0,1,2-2l3.75-.16c-.13-2.93-.18-5.95-.22-9l-7.48-.29-7.53-.37Zm24.94,9.43,7.74.05,4.64-.05H168a21,21,0,0,1,3.38-.18,14.38,14.38,0,0,0,4.24-.42,5.1,5.1,0,0,0,1.55-.95l.54-.39,2.42-1.71,1.74-1.22-.12,0-36-27.54,0,16.18,0,16.29,7.66,0Zm-9.69-53.3-24.18,17-9.06,6.4L110.8,422l.49,6.23,0,.51,8.18-3.77,8.29-3.7c-5.15-.18-10.28-.43-15.41-.67l-.34,0a1.35,1.35,0,0,1,.18-1.09c1.41-.45,2.7-2.12,3.55-3.22l3.48-3.79L121,410.6l11.37-12.3L143.74,386l0-8.5ZM89.45,409.45l-2.51,1.14-2.53,1.16L79.29,414v1.13l3.18.15,3,.21c.6,2.45,2.79,8.87,4.44,10a3.84,3.84,0,0,0,1.8.38,8.69,8.69,0,0,1,1.08.12l3.51.44,3.52.46a35.54,35.54,0,0,0,4.52.34c2.32,0,3.72-.38,4-1.1l-.16-3.18.12-5.71.12-5.72-19.08-2.06Zm56.2-30.76,0,6.64,0,6.82c0,.31,0,.78,0,1.32a19.45,19.45,0,0,0,.13,4.48l22.2,17,14.15,10.82,5.79-4.1,5.87-4.11-.11,0-32.11-25.94-15.93-12.87Zm-1.93,8L128.66,403l-15.21,16.46,30.35,1.16-.08-33.92Zm1.92-10.4v.21a4.43,4.43,0,0,0,.14,1.79L170,397.82l24.19,19.56.28-.22.87-.54-24.91-20.2-24.74-20.15Zm-87,28.49-1.34,2.89-2.08,4.46,8.28.88,8.34,1a28.25,28.25,0,0,0,4.32.49c1.06,0,1.45-.17,1.59-.32l.4-9.5-19.51.09Zm49.58-52.36L89.13,370.09l-8.29,7.68-.75,18.31-.75,17.55L85,411l4-1.78-.46,0a18.85,18.85,0,0,1-5.14-.68,1.35,1.35,0,0,1-.13-.84,1.8,1.8,0,0,1,1-.21,2.8,2.8,0,0,0,.63-.06l12.58-16.33,5.65-18.69,1.36-4.52,1.65-5.44,1.65-5.43c.64-2.14.82-3.71.52-4.65ZM53.56,404.76l-12.65,5.73,14,1.44L56,409.55l2.29-4.87-4.69.08Zm55-27.32-2.25,2.91-2.4,3.1-6.16,7.9L94.3,402.76l-1.72,5.71,16.28,1.86-.43-19c-1.87,0-2.27-2.06-2.62-3.87a14.65,14.65,0,0,0-.38-1.64c.45-.93,1.81-.95,3-1h.33l-.13-2.47-.09-4.95ZM97,392.3l-4,5.24-7.79,10.11,7.11.61,3.06-10.43L97,392.3Zm-21.3-24.8L61.61,385.38,47.1,403.82l11.7-.14,8.55-18.39,8.33-17.79Zm2.73-3.43A12.5,12.5,0,0,0,76,367.91l-.43.93-1.16,2.44-2.29,4.86L65.64,390l-6.53,13.84,19.19-.13.74-18,0-.82c.18-1.23.54-6.68.3-7.31l-1.17-.87.09-6.5.11-6.1Zm32.67,20.43a2.49,2.49,0,0,1,2.14.7l-.85,4.65a1.7,1.7,0,0,1-1,.75,2.29,2.29,0,0,0-.76.45l-.07,1.91,0,7.59,22.23-15.85,11.06-7.82v-2.59L136,369.7l-25.91-15.31.32,15.17.19,15a.84.84,0,0,1,.52-.1Zm-2.83-27.75L103.91,371,98,390.56l10.57-13.86-.16-11-.07-4.72-.07-4.21Zm0-5.81,0,.08-28.16,13,0,12.6.73.64,4.2-4,2-1.86,21.23-19.67,0-.84ZM78.42,362.76l-.4.87-.55,1.18.82-1.27.14-.18v-.6Z" transform="translate(0 0)"/><path class="cls-3" d="M355.84,460.78H289.36L286,459.59c-.75-.26-1.52-.51-2.29-.76-3.58-1.16-7.27-2.36-9.31-5l-.25-.32c-.7-.85-1.86-2.27-1.18-3.43a2.9,2.9,0,0,1,1.25-.24l-.34-1-4.44-12.6-.46,0-.51-.07-.11-.7.2-.39a4.7,4.7,0,0,1,1.24-.14,22,22,0,0,1,3.06.3l.24,0a4.63,4.63,0,0,0,.91.12,1.3,1.3,0,0,0,.38-.05h-.23c-1.05,0-2.82-.58-2.91-1.64L281,410.41c2.8-6.57,5.36-13.05,8.06-19.91q1.23-3.12,2.48-6.26l1.57-4.05,5.63-14.47-.49-.84-.49-.91.12-.4.08-.19.23-.14,0,0,.14,0,.44.35L327.16,351l-.09-.46.73-.32a1,1,0,0,1,.61.22l.27,2.68,2.44,3.94-.28-.71-.15-.76c1.19.67,2.45,3.26,3.47,5.34.42.87.81,1.67,1.13,2.2l9.89,18.29,8.72,16.11,11.76,20.33,1.51,2.53,4,6.78c.23.38.48.77.73,1.16a14.41,14.41,0,0,1,1.67,3.07l3.95,6.16,2.42,3.77-.18.08.3-.06.53.53v.34l-2.31.59L373.59,447l-3.93,3.38-4.55,3.92-1.75,1.47-2.27,1.91v.75l0,1.6a12.22,12.22,0,0,1-5.23.76ZM377.66,443l-2.32.56-2.52.62L367,450.56,361.1,457l0,.2,0,.23.07-.24,7.94-6.85,4.21-3.64,1.69-1.42,1.69-1.42c.21-.18.67-.62.89-.85Zm-5.28,1.27L361.16,447a41.52,41.52,0,0,1,.09,6.23c0,1.14-.08,2.27-.08,3.4l7.51-8.35,3.82-4.15-.14.13Zm-60.63-4.16-1.94,5.17-2,5.22,5.24,0,2.69.06,15.85-.56.55,0-.07-8.31-6.81-.46-6.89-.54-6.21-.55-.45,0Zm-3-.29-1.31,3.51-2.68,7.12,1.44-.07,1.53,0L311.54,440l-1.41-.07-1.42-.12Zm-1-.1-2.94,7.78-1.11,2.95.91-.1,3.95-10.59-.81,0ZM278,437l2.51,5.14,3.8,7.82,9.54.13,9.6.17,3-8.13,1-2.55L278,437Zm-3.25,12.82c3.06,0,6.18,0,9.3.1l-5.39-10.83-1-2.15-7.92-.68,2.37,6.73,2.4,6.83Zm64.54-18.24-4.11,5.19-1.54,1.95.71,10.83,8.22-.71,1.2-.1-2.06-8.61-1.63-7.08-.13,0a.34.34,0,0,1-.25-.14l-.17-.56-.24-.8Zm.94,1.58L344,448.78l.38-.06,2.73-.29,2.74-.29,2.24-.5c5.72-1.26,11.13-2.46,16.76-3.86l10.5-2.24-.09-.09-6.32-5.56-6.27-5.51c2.69,3.12,5.27,6.33,7.84,9.55l-.36.22-.16,0,1.44.78,1.32.86,0,.23a3.9,3.9,0,0,1-1.58-1,3.79,3.79,0,0,0-1.27-.84l-.91.05-4.72-1-13-2.85,2.87,4.37,2.79,4.49.15.23-.3-.08h0l-.11-.06-2.8-4.51L355,436.34l-6.76-1.43-8-1.72Zm19.87-12A20.14,20.14,0,0,0,363,425.6l.6.76a45,45,0,0,0,7.63,7.68l8.28,7.35-.09.13.32-.07-1.34-2-1.25-2-1.94-3.09-1.93-3.08-1.17-.74-.72-.47-1.75-1.36-3.11-2.41-3.74-3-2.67-2.13Zm-21.87,2.92-2.53,3.24-2.59,3.33.28,3.87.27,3.92,2.76-3.69,2.79-3.6a12.8,12.8,0,0,1-.41-3.28,11.68,11.68,0,0,0-.57-3.79Zm-5.58-.75,0,0,.52,6.78,1.25-1.58,3.78-4.8a1.62,1.62,0,0,0-.28-.92,10.53,10.53,0,0,1-3.74.9,2.2,2.2,0,0,1-.55-.06,1.37,1.37,0,0,1-.37-.15,1.64,1.64,0,0,0-.59-.19ZM329,382.44l-4,4.43L323.13,389l-.19,1.74-.23,2,3.92,5,2.53,3.25.19,0h.14a1.19,1.19,0,0,0,.6-.1l-.31-6.61-.36-6.35-.2-2.87-.18-2.69Zm1.61-.73,1.26,18.43,2-.39,1-.16-2.41-13.15L332.3,385l0-.25a.63.63,0,0,1,.09-.44.29.29,0,0,0,.06-.15l0-.08h0l-.66-1.13a3.36,3.36,0,0,1,.81,1.06l.53.31,3.7,5.22,1.91,2.55-.94-3.67-.85-3.72-5.8-2.84.76,1c-.53-.54-1-1-1.18-1.2Zm-7.83,7.64L321.36,391l1.23,1.52.07-1.75.16-1.45Zm-20.49-21.57,18.88,23.06.1-.16,1.66-1.9.81-7c0-.13.05-.43.1-.79a16,16,0,0,0,.22-2.24l-12.6-6.33-9.17-4.62Zm22.08,11.11-.6,4.85-.61,4.95,1.94-2.36,3.95-4.36,0-.39,0-.44-2.8-1.35-1.81-.9Zm4.34-25.25.67,9.75.68,10.05.2,3,.2,2.8a6.44,6.44,0,0,1,0,.77,2.31,2.31,0,0,0,.15,1.06c.42.75,5.22,3.13,6.33,3.49l-2.3-10-2.2-10.1-.74-3.55-.74-3.55-2.28-3.7Zm-1.44,1.21-1.37,11.52-1.47,12.32,3.73,1.78.93.45-1-13.4-.83-12.67Zm-.24-3.56L298.9,363.81l.27.13.61.73.61.74,1.48,1.86,2.69,1.33,2.72,1.35,8.5,4.28,8.5,4.29,2.39-20.23.3-2.86.24-2.32a4.34,4.34,0,0,1,0-.73,2.2,2.2,0,0,0-.13-1.09Z" transform="translate(0 0)"/><path class="cls-3" d="M520.16,332H60.62l0-.06-14-15.78-14-15.78-.08-.09.06-.11,6.59-12,0-5.35,0-5.44v-.2l.2,0,13.48,1.27,13.08,1.22L57,267.28l-2.44-3.39h-.4c-1.76,0-2.82-.31-3.35-1a2.27,2.27,0,0,1-.24-2l.06-.23a3.37,3.37,0,0,1,.76-1.7l.07-.07.1,0A1.27,1.27,0,0,0,52,259a.27.27,0,0,0,.18,0l11.06-23.57,11.11-23.63,5.13-11.18c.06-.13.17-.33.3-.59A12.82,12.82,0,0,0,81,197.16a6.73,6.73,0,0,0-2.45-2.37c-.28-.19-.55-.37-.8-.56A16.29,16.29,0,0,1,74,190.51l-.24-.32c-.58-.78-1.45-1.94-1.09-3,.12-.15.15-.19,3.79-.46l.5,0,32.45-42a21.42,21.42,0,0,0-2.56-6.67l-.43-.57-.79-1a3.45,3.45,0,0,1,.63-3.23l.13-.13.13.13.34.35,7.45-5.77,20.54-15.89,3.85-5,7.76-10.11,8.84-11.29V45.93H160v.18l-.19,12.82-.19,12.51,9.17,5.37,5,2.92L218,86.14l44.23,6.42,2.7-2.4,27.9-24.84.34-1.63.34-1.69c.8-3.2,1.45-6.48,2-10l-.12-1-.11-.93a7.47,7.47,0,0,1,1.18-5.65l.05-.06h.29c1.45,0,2.34,1.13,3.13,2.13.19.24.37.47.56.68l0-11.12,0-11.57v-.18h4.19v.19l-.2,12.79-.19,12.71,4.54,4.43,4.6,4.48L317.64,63a12.24,12.24,0,0,1,1,4c.08.53.16,1,.25,1.52l.11,1,.11.92L379.19,122l43.92-32.25,9.43-6.91c.11-4.82.13-9.47-.84-13.42a12.92,12.92,0,0,0-.47-1.34c-.51-1.33-1.15-3-.51-4.23l0-.08h.08a2.86,2.86,0,0,1,.43,0c1.82,0,5.42,1.62,8.31,2.93,1.33.6,2.5,1.12,3.29,1.4V61.86h.18l1.56,0,1.51,0h.18v.19L446.11,66l-.19,3.94,12.77,7.52c.31.19.79.43,1.35.71,1.4.7,3,1.49,3.39,2.19l1.39,8.46.77,4.78.24,1.84.22,1.79,56.34,69.43,56.38,69.47L606,269.8l2.85,3.51,4.43,5.45a6.29,6.29,0,0,0,1.23.65,2.67,2.67,0,0,1,2,2.19c.43,2.53-1.67,3.1-3.53,3.6a8.25,8.25,0,0,0-2,.71l.13.3,0,.1.07.15-.15.08-.16.08-.1.05-.09-.07-.07-.06-.23-.17-.13-.23-11.13,4.24.18.27.31.46.13.19-.23.08-.14,0-.08,0-.09,0-.11-.07-.2-.13-.31-.43-.19-.27-18.59,7.27-18.73,7.31-1.56,1.54-.83.8c-.55.44-1.07.88-1.6,1.32a40.4,40.4,0,0,1-4.33,3.29l-6.37,3.23-15.3,9.49-.53.34L520.2,332l0,0ZM404.39,306l9.26,11.84,33.82-1.6v-13.3l-32.61-28-21.8,16-8.93,6.54,18.94.22h.16l0,.16.58,4.13.56,4.09Zm11.07-31.55L442,297.26l5.51,4.74V275l-3.62.73-3.75.77-3.89,1.14-3.91,1.15a15.35,15.35,0,0,1-3.6.61c-.89,0-1.48-.21-1.73-.61l-.26-2.22L426,271.7l-.69-4.53-4.89,3.62-5,3.65Zm83.13,25.62a4,4,0,0,0,2.07.41,14.87,14.87,0,0,0,2-.17l3.24-.18,6.43-.36,15-.69,15-.69,8.26-1-.11-.2,0-.06a1.7,1.7,0,0,1-.4,0c-1.21,0-3.12-.95-4.38-1.57-.35-.18-.65-.33-.88-.43-2.59-1.14-5.17-2.34-7.67-3.5s-5-2.3-7.41-3.39a61.06,61.06,0,0,0-7.06-2.42c-1.55-.47-3.14-.94-4.65-1.48l-1-.32c-1.39-.43-3-.92-3.63-2-.4-1.87-.78-3.68-1.17-5.49l-4.13-14.78c-.66-2.15-1.21-4.44-1.76-6.65-.58-2.37-1.18-4.83-1.91-7.2-.59-1.87-1.15-3.75-1.72-5.64-2.09-6.88-4.24-14-6.86-20.62l-3.52-10.35-2-5.82-2-5.82-.32-.65c-.55-1.08-1.37-2.69-1-3.6l-3.48-4.74-2-2.74a10.09,10.09,0,0,1-.19,3.07l0,.09-.1,0a1.49,1.49,0,0,1-.36,0c-.92,0-1.58-.88-2.07-1.53-.08-.1-.14-.19-.21-.26a26.3,26.3,0,0,0-5.17-4.49c-4-2.84-8-5.5-13.5-6.87a18.77,18.77,0,0,0-3.63-.41,30.37,30.37,0,0,1-3.17-.27,14.13,14.13,0,0,0-2.3-.16,17.51,17.51,0,0,0-2.76.2l.51,5.16.46,4.66,13.35,3c2.57.65,5.23,1.24,7.8,1.82A144.56,144.56,0,0,1,485.16,196l.11,0v.11l.05.45c1,8.5,2.09,17.28,2.71,26.14,0,.55.12,1.28.23,2.12.34,2.88.81,6.84-.1,8.4l0,.06-.07,0-.22.07c-1.73-.26-4.49-2.91-6.94-5.23a38.71,38.71,0,0,0-3.33-3c-3.67-2.6-8.74-3.51-14.1-4.48l-3.3-.61a44.2,44.2,0,0,0-8.05-1,5,5,0,0,0-3,.6c0,1.5.29,3.79,1,4.21a3.07,3.07,0,0,0,1.24.27c.69.06,1.4.12,1.73.72a3.07,3.07,0,0,1-1.16,3.12,5.22,5.22,0,0,0-.68.81,14.53,14.53,0,0,0-1.45,4.68c-.08.4-.16.81-.25,1.2L470.42,237l21.06,2.34h.08l.05.06c.92,1.34,1.08,4,1.24,6.58a33.18,33.18,0,0,0,.32,3.45c1.14,6.5,2.55,16.33,1.62,26.76l1.55.17,1.73.19.15,0v.16l.19,7.42.19,7.43c0,.89-.05,1.88-.11,2.93a22.73,22.73,0,0,0,.09,5.55Zm-155-3.21,19.57.27,19.93.26,15.66-11.53,15.52-11.43-13.13-11.27L388,251.85,344.45,296l-.85.86ZM551,296.72l.11.17.21.32,11.6-1.89L577.2,293l-.72-1-1.24-1.79h0c-1,0-4.63-1.73-8.28-3.5-.91-.44-1.65-.8-2-1L538.2,273.77l5.11,8,5.44,8.46c.21.32.48.68.76,1.05,1.22,1.63,2.74,3.64,1.53,5.48Zm-233.37-.1,25,.23,44.87-45.4-.35-.41-16.53-14.12-16.41-14-2.94,3-5.77,5.92a2,2,0,0,1,1.19.76,5.1,5.1,0,0,1,.29,2.57,7.82,7.82,0,0,0,.05,1.77l1.37,5.51,6.28,20.29.14.95,1.09,6.88c.36,2,1.28,9.72-.05,11.11l-.06.05h-.32l-.06-.08a17.65,17.65,0,0,1-1.94-5.17c-.68-2.58-1.31-5-3.3-6.42a16.22,16.22,0,0,0-9.3-2.59,22.37,22.37,0,0,0-6.62,1c-5.72,1.78-11.4,3.35-17.42,5l-2.12.58-7.37,1.8V294l4.94.75,5.09.76.14,0,0,.13.06.54.06.46Zm-102.23-4.74,24.77,1.37,24.85,1.38,13.79.76a35.37,35.37,0,0,0,5,.44,11.37,11.37,0,0,0,2.3-.19l.35-.48a1.89,1.89,0,0,0-.09-.9l-10.48-3.59-16.08-5.5-31.25-10.42c-4-1.26-8.07-2.66-12-4-6.92-2.38-14.06-4.83-21.35-6.73l10,13.76,10.22,14.11Zm360.23-2.18,1.22,1.59,1.19,1.56,2-.36a38,38,0,0,0,7.24-1.68l4.32-1.72,4.17-1.66,0-.07-2.5-3L571.66,275l-10.19-4.41,2,2.49,4.14,4.89,3.51,4.15a14.23,14.23,0,0,0,1.71,1.66c1.32,1.14,2.7,2.33,3,4.33l-.22,1.58Zm-415.3-1,27.14,1.52,26.86,1.51L201,273.11l-6.7-9.32-1.46-.33-1.54-.34c-2-.5-5.1-1.25-6-3.48a8.84,8.84,0,0,1-.33-3.64,13.93,13.93,0,0,0-.06-2.75l-1-5.24-1-5.25-4.56-18.95-4.55-19-2.15-11.19-.31-1.73-.3-1.72-4-5.47-2.82-3.87-2.64,2.36-2.73,2.43.91,56.28.76,46.8Zm-93.52-9,38.83,3.7,48.43,4.62-.3-5-.29-5-16.86-2.51-17-2.52-9.19-1.3-9.19-1.3-7.39-1.08-7.39-1.07L55.58,264l11.27,15.76Zm528,5.29,1.66,2,.87-.38.62-.28-.93-.4-2.22-.95ZM473,134.88l30.76,37.8,22.27,27.54L566.36,250l9.29,9.19,18.72,18.52a28.91,28.91,0,0,1,3.39,3.85c.36.51.69,1,1,1.55a15,15,0,0,0,2.12,2.88l.1,0,.19,0a36.48,36.48,0,0,0,4-6.12L579.7,248.39l-4.44-5.48L470.64,114l1.16,10.19L473,134.88ZM451,88.6l11.54,14.16,1.86,2.29c.26.33.55.74.87,1.18,1.32,1.86,3.14,4.41,4.93,4.81l.13,0v.14a4.78,4.78,0,0,0,1.71,3.38,9.86,9.86,0,0,1,.85,1l3.3,4,3.29,4.06,26.57,32.78,95.08,117.38,4.38,5.41A4.2,4.2,0,0,1,607,277a3.35,3.35,0,0,1,.92-.13,7,7,0,0,1,2.92.88l.93.41L480.9,116.6,466.2,98.48c0,.25.07.51.1.78.26,1.93.58,4.32,0,6l0,.12h-.51l-.05,0a15.41,15.41,0,0,1-2.08-3,21.94,21.94,0,0,0-1.38-2.19A51.93,51.93,0,0,0,458.65,96c-1-1.07-2-2.17-2.95-3.31-1.06-1.32-2.62-3.25-4.69-4ZM202,159.36l28.67,40.21,29.61,41.52c3.14,4.43,6.39,8.88,9.53,13.19,2.66,3.66,5.42,7.43,8.08,11.16,1.21,1.69,2.5,3.33,3.74,4.92.59.76,1.19,1.51,1.77,2.28.17.21.33.44.5.67a8.65,8.65,0,0,0,1.9,2.12c.27-2.9-.73-8.09-1.28-10.91l-.06-.32-1.64-10.84-1.65-10.84-.25-1.51-1.51-9.44c-.11-.5-.18-1-.24-1.51a8.56,8.56,0,0,0-.59-2.58l-38.87-34.56L202,159.36Zm186.51,91.95.36.41,26,22.25,6.94-5.07,3.43-2.52-1.32-8.5-1.34-8.62c-.15-.71-.28-1.57-.42-2.49-.33-2.18-.71-4.65-1.47-5.87l-6-5.09-5.88-5-.1.1-20.2,20.42ZM53.08,259.2l27.73,4.19,42,6.34,16.76,2.47,2.46.37,1.46.29a31,31,0,0,0,6.13.86,9.41,9.41,0,0,0,2.09-.21l.22-.28,0-.27,0-.21-13.14-2.33-6.63-1.17-48.95-8.5-17-2.68a13.47,13.47,0,0,0-2.08-.15c-1.66,0-3.37-.07-4-1.25l0-.08,0-.07a2.16,2.16,0,0,1,.56-.77,1.83,1.83,0,0,0,.37-.41l.83-1.85.84-1.88c3.55-8.39,6.67-17.22,9.68-25.76,1.47-4.19,3-8.51,4.56-12.75l4-11c.25-.67,1-2.58.62-3.85L53.08,259.2Zm301.77-36.86L381.6,245.4l6.37,5.5,4.4-4.32,8.05-8.2,7.9-8-6.82-5.85-16.7-14.33-.94-.81-6.64-5.69a8.23,8.23,0,0,1-.73-.72,4.51,4.51,0,0,0-1.41-1.13l-20.23,20.54ZM487,170.91c.72,0,2,1.25,3.51,2.89a15.16,15.16,0,0,0,1.31,1.3l13.85,14,6.92,7,2.3,2.33,4.6,4.64L530.31,214l10.83,10.88.15.15,20.35,20.27L477.26,141.19l-4.08-5c.07.56.19,1.3.31,2.12.65,4.11,1.14,7.58.58,8.48l-.05.08h-.47l-.05,0a21.68,21.68,0,0,1-2.21-2.18,19.23,19.23,0,0,0-2.23-2.19l-2.23-1.79c-2.95-2.38-6-4.83-9.18-7.09l-.64-.45c-2.44-1.76-5-3.57-8.79-3.57-.38,0-.77,0-1.15,0v1.5h.82c1.48,0,3.56.07,4.6.64l.09.06v.1c0,2.36-1.27,3.73-2.51,5.06a7.6,7.6,0,0,0-2.54,4.54l22.38,7c.6.2,1.29.39,2,.59,2.22.6,4.75,1.29,5.74,2.85l.45,3.83.42,3.71,8.4,11.43Zm-77.61,59.34.1.12.18.21,5.31,4.51,5.37,4.55a8,8,0,0,0-2.05-4,6,6,0,0,0-1.44-.75c-1.22-.49-2.47-1-2.07-3.25l0-.17.17,0,14.36,1.11,14.18,1.1c0-.3.05-.61.09-.93.36-4,.9-10.11-2.41-10.81l-4.52,1.15-13.78,4.06-.16.06a11.25,11.25,0,0,1-3.51.8,2.88,2.88,0,0,1-1.77-.51c-1-.76-.69-3.25-.4-4.9l-7.67,7.68ZM306.06,224l16.63,3.24,22,4.29,3.37-3.45,3.45-3.52c.14-.14.34-.32.58-.52.57-.49,1.6-1.39,1.6-1.79l-6.15-5.24-5.84-5c.12.77.28,1.63.45,2.53.72,3.82,1.64,8.58,0,11.29l-.05.09H342c-1.61-.08-2.78-1.63-3.64-2.77l-.4-.52-.46-.58a57.2,57.2,0,0,0-7.48-8.2c-4.53-3.65-10.9-3.93-19.42-3.94h0l-2.11.11-1.95.11-.51,13.51V224Zm69.63-22.76,33.12,28.56,2.22-2.18,2.33-2.3,1.92-2,1.86-1.91L419,204.1l.91-8.64-18.62-15.91L399,177.64l-.19.18-23.15,23.46Zm-179-49.44c4.1,5.92,9.55,10.52,14.35,14.38l14.45,12.84,2.87,2.56L253.41,204,278,225.79l-2.19-5.9,0-.08,0-.07.07-.15.06-.12.13,0,22.46,3.42-.22-11.08a143.88,143.88,0,0,0-16.63,3.49l-.93.3a11.92,11.92,0,0,1-3.53.78,2.91,2.91,0,0,1-1.74-.49c-1.1-.82-.63-3.56-.06-6.31.05-.26.11-.49.14-.69l.77-5.81.76-5.82,1.07-9.86-9.61-8.51L233.68,148,222,137.62a19.6,19.6,0,0,1-1.57-1.53,11.58,11.58,0,0,0-3.09-2.61L198.61,150.1l-2,1.74Zm291,41.51.19.13.08.05.15.1q10.6,16,21.12,32l-7.4-15.8-5.87-12.52a104.36,104.36,0,0,0-5.81-11.7l-.55-1.33L489,183l-5.8-7.85-3.43-4.77-.1-.13.79,7.88.83,8.49,2.49,3.41,3.35,4.6.41-1,.08-.21ZM341.58,211l12.69,10.87,10.18-10.26,10.2-10.26-.14-.19-7.36-6.29-7.27-6.21-18.73,19,.43,3.37ZM170.82,188.51l.25.13.16.08.05,0,0,.05a5.54,5.54,0,0,0,1.79,1.7c.22.16.43.31.61.46l6.13,5.13,13.1,10.74,7.28,6-4.15-14-6.48-21.78-3.22-10.8c-.13-.42-.23-.93-.34-1.46a8,8,0,0,0-.89-2.77l-.94.84-19.66,17.49,3.27,4.47,3,4.11v-.43ZM306,174.88l12.28,4L330.67,183c.58.18,1.35.38,2.25.61,2.84.71,6.37,1.59,7.27,3s.47,3.7,0,5.62c-.12.52-.24,1-.31,1.47l.08,1.88.07,1.92a45.7,45.7,0,0,1,.47,4.72,42.33,42.33,0,0,0,.47,4.57l18.41-18.49-.14-.18-11.91-10.19L334.65,167c.09,1.09.36,2.62.67,4.34.74,4.21,1.59,9,.51,10.89l-.05.09h-.49l-.05,0a10.26,10.26,0,0,1-1.43-1.88,8.38,8.38,0,0,0-1.7-2.09,122,122,0,0,0-11.86-8.57l-1.25-.8a29.39,29.39,0,0,0-5.3-2.94,28.24,28.24,0,0,0-7.51-1.33l-.21,0v10.24Zm-193.2-33L134.19,172l21.15,29.79-.07-104.68h0L143,106.63l-7.39,5.72-22.79,29.51Zm247.66,46.32,14.67,12.63,7.71-7.79,15.72-15.88-.13-.18-4.28-3.61-10.42-8.82-11.65,11.84-11.62,11.81Zm128.11-7.58.36.18.1.05,12,15.43a192.47,192.47,0,0,0-10.15-17.63l-3-4.2a4.21,4.21,0,0,0-.88-.75,3,3,0,0,1-1.29-1.44l0-.08.05-.08.54-.82-3.6-4.94-4-5.44.39,3.66.45,4.28,2.27,3.11,6.85,9.37,0-.36-.05-.34Zm-89-3.53,12.73,11,7.67,6.59c0-.83.15-1.66.27-2.47.32-2.36.6-4.39-1.12-5.57a4.86,4.86,0,0,0-1.65-.52,4.72,4.72,0,0,1-1.71-.55l-.06,0,0-.06a6,6,0,0,1-.31-2v-.15l.15,0a17.48,17.48,0,0,1,2.24-.14,40.11,40.11,0,0,1,7.15.85l.32.06c4.17.76,8.38,1.32,12.45,1.86,2.11.28,4.22.56,6.32.87l-.51-10.09L426.29,178a15.73,15.73,0,0,1-2.35.17,8.9,8.9,0,0,1-4.81-1l-.07-.05V177a24.21,24.21,0,0,1,.53-5.79l.38-3.78.39-3.79c0-.24.09-.51.15-.82.25-1.3.64-3.27.33-4.11l-.92-.73-.83-.67-6.49,6.58-13,13.16Zm-65.12-11.19,9.24,8,16.17,13.88,11.71-11.82,11.72-11.84-.21-.26-16.61-14.18-11-9.37-8.23,6.12-8.35,6.21-1,.66c-1.53,1-4.7,3.11-4.85,3.82l1.37,8.83ZM109.78,145.69,84.14,178.87l-5.93,7.69,4.6-.77A28.44,28.44,0,0,0,88.19,182c.61-.51,1.21-1,1.81-1.49,7.75-6.08,11.59-11.33,15.8-21.6,1.43-3.47,2.61-6.69,3.52-9.56.05-.16.11-.33.17-.5.35-1,.74-2.21.29-3.11ZM218,133l15,13.34,45.23,40.2.51-7v-4.74a15.89,15.89,0,0,0-1.81-4.11,5.68,5.68,0,0,0-.41-.59,3.69,3.69,0,0,1-.84-1.62l0-.21h.59l8.7,1.84,17,4.24.18-5,.19-5.06H286.5a35.55,35.55,0,0,1-5.17.44,12.62,12.62,0,0,1-3.69-.45l-.16,0,0-.24,3.28-14.64,1.14-5.07L235.82,117.1l-8.95,8L218,133Zm-59.52,40.24.21,11.34.32-.32,3-2.66,1.55-1.37-5.08-7Zm0-1.24,3.85,5.26,1.82,2.5,10.34-9.22,10.41-9.26-3.45-11.65L178,137.89l-2-1.78L158.76,121l-.17,12-.36,24.87.23,14.11Zm225.88-8,2.77,2.38L399,176.61l19.58-19.73h0l-4-3.4-6.53-5.59a14,14,0,0,1-1.44-1.38,8.73,8.73,0,0,0-2.84-2.3l-9.76,9.92L384.34,164Zm-28.11-24.17.33.39,27.2,23.31,9.77-9.84,9.85-9.93-.07-.1-12.15-10.38-12.07-10.33-22.86,16.88Zm65.08,15.25c-.13.13-.27.25-.42.38-.78.69-1.31,1.22-1,1.7l1.15.89.14-1.69.1-1.28Zm-2.17,1.32h0l2.35-2.43L423,139.23a10.11,10.11,0,0,0-2.28-3.67c-.32-.38-.64-.75-.91-1.11l-.3-.4.49.12,11.95,3,11.76,2.93.7-4.82-4.44-.4-4.63-.42,0-.36h.09a22.46,22.46,0,0,1,3.56-1.6c1.83-.72,3.91-1.55,4.23-2.07l.06-.37.11-.58h-1.76a56.71,56.71,0,0,0-13,1.15,26.57,26.57,0,0,0-2.57.84,17.86,17.86,0,0,1-4.89,1.24H421l.06-.24,1.34-5.11.64-2.44-9.15,9.22-9.47,9.55,7.32,6.31,7.41,6.39Zm-114-30.74L323,136c.63.37,1.29.71,2,1.07,2.09,1.08,4.25,2.2,5.43,4a7,7,0,0,1,.67,3.07,15.62,15.62,0,0,0,.2,1.67L333,156l22.12-16.18-.1-.12-.23-.27L340,126.86l-14.4-12.3,1.63,13.87c.17,1,.68,4.52-.1,5.92l-.07.12-.2,0-.31-.08c-1.56-.76-2.13-2.78-2.69-4.74a13,13,0,0,0-1.1-3c-1.77-3-8.27-12.67-17.66-13.3l-.08,8.47a10.46,10.46,0,0,0,0,3.85Zm-130.81-5.51.07.1,21.86,30.92,20.56-18.21-.05-.05-.15-.19L159.37,82l-.19,12.59-.11,6.27,7.21,9.94,7.12,9.83h0a1.34,1.34,0,0,1,.77-.44l.12,0Zm62.1-3.56,22.89,13.48,22.78,13.42.32-1.58.34-1.69.62-3.21.61-3.21.29-7v-.29l.27-3.79.27-3.79v0l0,0,.07-.12.08-.11,0-.08h.1a9.38,9.38,0,0,1,3.65.95c.24.1.47.2.7.28,1.47.58,2.91,1.24,4.3,1.88,1.82.83,3.55,1.62,5.36,2.26l.18-.75.8-3.18.61-3.29a5.48,5.48,0,0,0,0-3.24c-.61-1-2.1-1.53-4.43-1.53a36.72,36.72,0,0,0-9.22,1.61c-.25.07-.52.18-.82.29a7.35,7.35,0,0,1-2.24.58,1.62,1.62,0,0,1-.32,0l-.13,0,0-.13a15.08,15.08,0,0,1,.52-5.3l0-.12.65-3.29.65-3.29,1.41-5.33-12.13-1.78-12.25-1.78L249.32,105l-12.93,11.54Zm143.35,5.93.07.09.19.23,12,10.24,11.86,10.15,6.49-6.53,13.12-13.23,1.08-4.11,5.26-20a4,4,0,0,0-1-2.85c-.58-.91-1.13-1.77-.79-2.68l0-.12h.19a12,12,0,0,1,3.83.81c.28.1.55.19.83.27,1.74.54,3.43,1.09,5.11,1.63s3.31,1.08,5,1.59l-.1-1.35-.11-1.61c0-.68,0-1.38,0-2,.07-2.26.13-4.22-1.79-4.68a3.45,3.45,0,0,0-.8-.08,11.83,11.83,0,0,0-5,1.77l-.72.39a9.25,9.25,0,0,1-3.4,1.43,1.07,1.07,0,0,1-.41-.07l-.08,0,0-.07-.07-.24a18.93,18.93,0,0,1,.83-3.06,17.07,17.07,0,0,0,1.12-4.64L379.74,122.5ZM107.36,134.23l1.59,2.26,3.26,4.64.08-.07.15-.12,5.45-7.09,14.81-19.27-13.22,10.26-12.12,9.39ZM304,71.8l.45,8a6.68,6.68,0,0,1,0,1c0,.54,0,1.16.17,1.41l10.88,7.1L318.08,91c.35.23.82.49,1.33.77,1.51.84,3.38,1.89,4,2.89,1.36,2.17,1.49,5.2,1.64,8.41a44.75,44.75,0,0,0,.38,4.83,14.94,14.94,0,0,1,0,2.27c0,1.34-.1,3,.25,3.38l18.65,16,11.3,9.73,0,0,11.54-8.48,11.4-8.36L348.85,96.87,319.27,71.51l.57,5.75.61,6.21c0,.42.08.91.14,1.42.15,1.33.33,2.84-.16,3.66l-.05.1h-.12c-2.72-.14-3.91-3.22-4.87-5.69-.16-.44-.33-.86-.49-1.23-1.89-4.39-4.24-9.84-10.9-9.92ZM158.77,119.86l9.55,8.49,9.24,8.21-1.77-5.64-2.44-7.78-.11-.9-.12-1-11.3-15.46L159.06,102l-.14,8.69-.15,9.14Zm.69-38.9L203.9,120.5l10.41,9.27.34.32c.67.64,2.24,2.15,2.8,2.15l6.62-5.84,6.55-5.82.82-.64a18.81,18.81,0,0,0,3.65-3.3l-23.4-13.73L188.14,89.08l-7.28-4.33-7.27-4.33-7.14-1-7-1V81Zm16.1-.23,20,11.83,40,23.59a3.85,3.85,0,0,0,1.3-1.08,5.2,5.2,0,0,1,.71-.7l5.5-4.9,9.31-8.27,9-8-43.19-6.26-42.67-6.19Zm-20.29,6.19-17.58,22.75L155.34,96l-.07-9Zm290.82,1.23.43,4,.46,4.18a8.34,8.34,0,0,1,.07,1.2,3.69,3.69,0,0,0,.35,2.06l3.27,1.53L454,102.7c3.75,1.66,7.82,3.72,12.74,6.44L456,96l-2.1-2.59-4.09-5.15-1.06-.07-2-.15-.72.12ZM263.24,92.71l10.91,1.53,13,1.83a14.68,14.68,0,0,1,2-5.27A14.5,14.5,0,0,0,291,86.36a14.54,14.54,0,0,0-.38-5.7,12.88,12.88,0,0,1-.38-4.71v-.09l.09,0,.3-.15.05,0h.05a19.28,19.28,0,0,1,7,2.8,36.12,36.12,0,0,0,3.32,1.71v-.25c0-2.93,0-6.58-1.57-8.2a2.8,2.8,0,0,0-2.12-.82,5.19,5.19,0,0,0-.77.06,10,10,0,0,0-1.9.61,6.92,6.92,0,0,1-2.46.67,2.42,2.42,0,0,1-.54-.06l-.14,0V72a12.85,12.85,0,0,1,.53-2.91,10.78,10.78,0,0,0,.45-2.56L277.89,79.64,263.24,92.71Zm-103.78-15,12.35,1.7L166,75.94l-6.36-3.71-.07,2.64-.07,2.79Z" transform="translate(0 0)"/></g></svg>